<svg xmlns="http://www.w3.org/2000/svg" xmlns:xlink="http://www.w3.org/1999/xlink" class="" app-context="doc-2d" x="0px" y="0px" width="900" height="200" jvs-fullPath="_new_1507822180216/Untitled"><title/><desc/><defs><link xmlns="http://www.w3.org/1999/xhtml" rel="stylesheet" type="text/css" href="https://fonts.googleapis.com/css?family=Cagliostro:regular&amp;subset=latin"></link></defs><g id="jvs-guides" transform="matrix(1 0 0 1 0 0)"/><g id="jvs-content" enable-background="new"><g transform="matrix(1,0,0,1,0,0)" name="Layer" jvs-layer-color="#fb0094" class="jvs-layer"><rect transform="matrix(1 0 0 1 23.9864 21.2815)" width="200" height="200" fill="rgb(249,182,0)" stroke="rgb(249,182,0)" stroke-width="1.00" stroke-linecap="butt" stroke-linejoin="miter" opacity="1" rx="0" x="-23.986377716064453" y="-21.281543731689453" fill-opacity="1" stroke-opacity="1"/></g><g transform="matrix(1,0,0,1,0,0)" name="Layer 1" jvs-layer-color="#ff7f00" class="jvs-layer"><rect transform="matrix(1 0 0 1 50.5019 25.547)" width="100" height="100" fill="rgb(173,127,127)" stroke="rgb(173,127,127)" stroke-width="1.00" stroke-linecap="butt" stroke-linejoin="miter" opacity="1" rx="0" x="-40.501914978027344" y="-15.547003746032715" fill-opacity="1" stroke-opacity="1"/></g><g transform="matrix(1,0,0,1,0,0)" name="Layer 2" jvs-layer-color="#ffff00" class="jvs-layer selected"><rect transform="matrix(1 0 0 1 90.8537 92.4387)" width="100" height="100" fill="rgb(86,105,98)" stroke=" rgb(173, 127, 127)" stroke-width="1.00" stroke-linecap="butt" stroke-linejoin="miter" opacity="1" rx="0" x="-0.8536588549613953" y="-2.438737154006958" fill-opacity="1"/><text controller-class="Text_box" transform="matrix(1 0 0 1 218.439 32.9757)" width="579.375" height="135.703125" font-family="Cagliostro" font-size="100" font-style="regular" text-align="left" text-anchor="start" fill="rgb(21,51,40)" stroke=" rgb(173, 127, 127)" stroke-width="1.00" stroke-linecap="butt" stroke-linejoin="miter" opacity="1" style="" font-weight="" fill-opacity="1"><tspan x="0" y="100" newline=""><![CDATA[BINAWATCH]]></tspan></text></g></g></svg>